<?xml version="1.0" encoding="UTF-8"?>
<svg xmlns="http://www.w3.org/2000/svg" version="1.1" width="100" height="100" viewBox="0 0 100 100"><rect x="0" y="0" width="100" height="100" fill="#ffffff"/><g transform="scale(2.703)"><g transform="translate(0,0)"><path fill-rule="evenodd" d="M8 0L8 1L11 1L11 3L10 3L10 2L9 2L9 3L10 3L10 5L9 5L9 6L8 6L8 8L9 8L9 10L8 10L8 9L7 9L7 8L6 8L6 9L7 9L7 10L5 10L5 8L3 8L3 10L0 10L0 12L1 12L1 13L0 13L0 14L1 14L1 16L0 16L0 17L1 17L1 18L0 18L0 19L2 19L2 18L5 18L5 19L8 19L8 20L6 20L6 21L5 21L5 20L4 20L4 19L3 19L3 21L4 21L4 23L3 23L3 22L1 22L1 21L2 21L2 20L0 20L0 22L1 22L1 23L0 23L0 24L2 24L2 26L1 26L1 25L0 25L0 29L1 29L1 27L2 27L2 28L3 28L3 29L4 29L4 28L5 28L5 26L6 26L6 27L7 27L7 28L6 28L6 29L7 29L7 28L8 28L8 27L9 27L9 26L10 26L10 25L13 25L13 26L11 26L11 28L12 28L12 27L14 27L14 26L15 26L15 27L16 27L16 28L14 28L14 29L10 29L10 28L9 28L9 29L8 29L8 30L9 30L9 32L8 32L8 34L9 34L9 35L8 35L8 37L11 37L11 36L9 36L9 35L11 35L11 33L10 33L10 30L11 30L11 31L12 31L12 33L14 33L14 36L13 36L13 37L15 37L15 36L18 36L18 35L16 35L16 33L17 33L17 34L20 34L20 33L21 33L21 32L20 32L20 30L21 30L21 31L22 31L22 32L23 32L23 31L24 31L24 32L26 32L26 31L27 31L27 33L22 33L22 36L23 36L23 37L24 37L24 36L25 36L25 35L24 35L24 34L27 34L27 35L26 35L26 37L27 37L27 36L28 36L28 37L29 37L29 36L28 36L28 34L27 34L27 33L29 33L29 35L30 35L30 37L32 37L32 36L31 36L31 35L33 35L33 37L34 37L34 36L36 36L36 37L37 37L37 33L35 33L35 34L36 34L36 35L34 35L34 31L35 31L35 32L36 32L36 31L37 31L37 30L36 30L36 28L37 28L37 26L36 26L36 25L37 25L37 22L36 22L36 21L37 21L37 18L36 18L36 20L35 20L35 22L34 22L34 19L35 19L35 18L34 18L34 17L37 17L37 14L36 14L36 11L37 11L37 10L34 10L34 9L32 9L32 12L33 12L33 13L31 13L31 10L30 10L30 9L31 9L31 8L30 8L30 9L29 9L29 6L28 6L28 7L27 7L27 6L26 6L26 7L25 7L25 5L23 5L23 4L24 4L24 3L27 3L27 2L25 2L25 1L24 1L24 3L23 3L23 0L22 0L22 1L19 1L19 2L18 2L18 0L17 0L17 1L16 1L16 2L18 2L18 3L15 3L15 0L14 0L14 1L12 1L12 0ZM26 0L26 1L27 1L27 0ZM28 0L28 5L29 5L29 0ZM12 2L12 4L13 4L13 5L12 5L12 6L11 6L11 5L10 5L10 6L9 6L9 7L10 7L10 9L11 9L11 11L10 11L10 12L11 12L11 16L10 16L10 18L9 18L9 20L10 20L10 18L11 18L11 19L12 19L12 21L10 21L10 23L11 23L11 22L12 22L12 23L13 23L13 22L12 22L12 21L13 21L13 19L15 19L15 17L16 17L16 23L15 23L15 22L14 22L14 25L15 25L15 24L16 24L16 25L19 25L19 26L17 26L17 29L16 29L16 31L15 31L15 30L12 30L12 31L13 31L13 32L14 32L14 31L15 31L15 32L16 32L16 31L17 31L17 32L18 32L18 33L19 33L19 32L18 32L18 30L19 30L19 29L21 29L21 30L22 30L22 31L23 31L23 30L24 30L24 31L26 31L26 30L27 30L27 31L28 31L28 27L29 27L29 28L31 28L31 27L32 27L32 28L33 28L33 27L35 27L35 28L36 28L36 27L35 27L35 25L36 25L36 24L34 24L34 25L33 25L33 23L34 23L34 22L32 22L32 23L31 23L31 21L32 21L32 19L31 19L31 21L30 21L30 19L29 19L29 18L33 18L33 15L35 15L35 16L36 16L36 14L33 14L33 15L31 15L31 16L32 16L32 17L29 17L29 16L30 16L30 14L31 14L31 13L30 13L30 14L28 14L28 15L27 15L27 14L25 14L25 13L24 13L24 11L25 11L25 12L26 12L26 13L27 13L27 12L29 12L29 9L28 9L28 8L27 8L27 7L26 7L26 8L27 8L27 9L28 9L28 11L27 11L27 10L25 10L25 8L24 8L24 11L22 11L22 10L23 10L23 9L22 9L22 6L23 6L23 7L24 7L24 6L23 6L23 5L22 5L22 6L21 6L21 2L20 2L20 3L19 3L19 4L18 4L18 5L19 5L19 7L18 7L18 6L17 6L17 7L16 7L16 4L13 4L13 2ZM22 3L22 4L23 4L23 3ZM19 4L19 5L20 5L20 4ZM26 4L26 5L27 5L27 4ZM10 6L10 7L11 7L11 6ZM12 6L12 9L13 9L13 10L12 10L12 11L13 11L13 10L15 10L15 11L14 11L14 12L15 12L15 16L16 16L16 17L17 17L17 15L18 15L18 14L19 14L19 16L20 16L20 14L19 14L19 13L21 13L21 11L19 11L19 13L18 13L18 14L17 14L17 12L18 12L18 10L17 10L17 9L19 9L19 10L20 10L20 9L19 9L19 8L21 8L21 6L20 6L20 7L19 7L19 8L17 8L17 9L16 9L16 8L14 8L14 7L15 7L15 6L14 6L14 7L13 7L13 6ZM0 8L0 9L2 9L2 8ZM13 8L13 9L14 9L14 8ZM36 8L36 9L37 9L37 8ZM4 10L4 11L3 11L3 12L4 12L4 14L5 14L5 15L4 15L4 16L7 16L7 17L5 17L5 18L7 18L7 17L8 17L8 16L7 16L7 15L6 15L6 14L9 14L9 12L8 12L8 13L6 13L6 12L7 12L7 11L8 11L8 10L7 10L7 11L6 11L6 12L5 12L5 10ZM33 10L33 12L34 12L34 13L35 13L35 12L34 12L34 10ZM1 11L1 12L2 12L2 11ZM16 11L16 12L17 12L17 11ZM26 11L26 12L27 12L27 11ZM1 13L1 14L2 14L2 13ZM12 13L12 14L13 14L13 15L12 15L12 16L11 16L11 18L12 18L12 19L13 19L13 18L12 18L12 17L14 17L14 16L13 16L13 15L14 15L14 14L13 14L13 13ZM22 13L22 14L21 14L21 15L23 15L23 14L24 14L24 13ZM2 15L2 17L3 17L3 15ZM24 15L24 16L22 16L22 17L19 17L19 18L17 18L17 19L18 19L18 20L17 20L17 21L18 21L18 22L20 22L20 23L19 23L19 24L20 24L20 23L22 23L22 24L23 24L23 23L24 23L24 25L23 25L23 26L22 26L22 25L21 25L21 26L22 26L22 27L23 27L23 29L24 29L24 30L25 30L25 29L26 29L26 28L25 28L25 29L24 29L24 27L23 27L23 26L24 26L24 25L25 25L25 23L24 23L24 21L21 21L21 18L23 18L23 20L26 20L26 24L27 24L27 25L26 25L26 26L25 26L25 27L28 27L28 26L29 26L29 27L31 27L31 26L30 26L30 25L31 25L31 24L30 24L30 25L29 25L29 24L28 24L28 21L27 21L27 20L26 20L26 19L25 19L25 18L26 18L26 17L27 17L27 19L28 19L28 18L29 18L29 17L27 17L27 16L25 16L25 15ZM23 17L23 18L25 18L25 17ZM19 19L19 20L18 20L18 21L19 21L19 20L20 20L20 19ZM14 20L14 21L15 21L15 20ZM6 21L6 22L5 22L5 23L4 23L4 24L3 24L3 23L2 23L2 24L3 24L3 25L4 25L4 24L7 24L7 25L6 25L6 26L7 26L7 25L8 25L8 26L9 26L9 25L10 25L10 24L9 24L9 25L8 25L8 24L7 24L7 23L6 23L6 22L7 22L7 21ZM8 21L8 22L9 22L9 21ZM20 21L20 22L21 22L21 21ZM22 22L22 23L23 23L23 22ZM35 22L35 23L36 23L36 22ZM17 23L17 24L18 24L18 23ZM32 25L32 27L33 27L33 25ZM2 26L2 27L4 27L4 26ZM19 26L19 28L20 28L20 26ZM9 29L9 30L10 30L10 29ZM29 29L29 32L32 32L32 29ZM33 29L33 31L34 31L34 29ZM30 30L30 31L31 31L31 30ZM35 30L35 31L36 31L36 30ZM31 33L31 34L30 34L30 35L31 35L31 34L33 34L33 33ZM12 34L12 35L13 35L13 34ZM19 35L19 37L21 37L21 35ZM23 35L23 36L24 36L24 35ZM0 0L0 7L7 7L7 0ZM1 1L1 6L6 6L6 1ZM2 2L2 5L5 5L5 2ZM30 0L30 7L37 7L37 0ZM31 1L31 6L36 6L36 1ZM32 2L32 5L35 5L35 2ZM0 30L0 37L7 37L7 30ZM1 31L1 36L6 36L6 31ZM2 32L2 35L5 35L5 32Z" fill="#000000"/></g></g></svg>
