<?xml version="1.0" encoding="UTF-8"?>
<svg xmlns="http://www.w3.org/2000/svg" version="1.1" width="100" height="100" viewBox="0 0 100 100"><rect x="0" y="0" width="100" height="100" fill="#ffffff"/><g transform="scale(2.703)"><g transform="translate(0,0)"><path fill-rule="evenodd" d="M8 0L8 1L11 1L11 3L10 3L10 2L9 2L9 3L10 3L10 5L9 5L9 6L8 6L8 8L9 8L9 9L10 9L10 10L9 10L9 11L8 11L8 10L6 10L6 9L7 9L7 8L6 8L6 9L5 9L5 8L3 8L3 10L2 10L2 8L0 8L0 9L1 9L1 10L2 10L2 11L0 11L0 12L1 12L1 13L0 13L0 15L2 15L2 16L0 16L0 23L1 23L1 24L2 24L2 25L0 25L0 29L1 29L1 27L2 27L2 29L3 29L3 27L2 27L2 26L3 26L3 25L7 25L7 26L6 26L6 27L5 27L5 26L4 26L4 27L5 27L5 29L8 29L8 30L9 30L9 31L10 31L10 32L8 32L8 34L9 34L9 35L8 35L8 37L11 37L11 36L9 36L9 35L11 35L11 34L9 34L9 33L10 33L10 32L11 32L11 31L12 31L12 33L14 33L14 36L13 36L13 37L15 37L15 36L16 36L16 37L17 37L17 36L18 36L18 35L19 35L19 37L20 37L20 36L21 36L21 32L20 32L20 30L21 30L21 29L18 29L18 31L19 31L19 34L18 34L18 32L17 32L17 36L16 36L16 32L15 32L15 31L17 31L17 30L16 30L16 28L17 28L17 27L18 27L18 28L19 28L19 27L22 27L22 29L23 29L23 27L22 27L22 26L25 26L25 27L24 27L24 28L25 28L25 29L24 29L24 30L23 30L23 31L22 31L22 32L23 32L23 34L22 34L22 35L23 35L23 36L24 36L24 37L25 37L25 34L27 34L27 35L26 35L26 36L28 36L28 37L29 37L29 36L28 36L28 34L27 34L27 33L29 33L29 35L30 35L30 37L32 37L32 36L31 36L31 35L33 35L33 37L34 37L34 36L36 36L36 37L37 37L37 33L35 33L35 34L36 34L36 35L34 35L34 31L35 31L35 32L36 32L36 31L37 31L37 30L36 30L36 28L37 28L37 26L36 26L36 25L37 25L37 22L36 22L36 21L37 21L37 18L36 18L36 20L35 20L35 22L34 22L34 19L35 19L35 18L34 18L34 17L37 17L37 14L36 14L36 11L37 11L37 10L34 10L34 9L32 9L32 12L33 12L33 13L31 13L31 10L30 10L30 9L31 9L31 8L30 8L30 9L29 9L29 6L28 6L28 7L27 7L27 6L26 6L26 7L25 7L25 5L23 5L23 3L24 3L24 4L25 4L25 3L27 3L27 2L25 2L25 3L24 3L24 2L23 2L23 3L22 3L22 2L21 2L21 3L20 3L20 1L18 1L18 0L16 0L16 1L18 1L18 3L17 3L17 4L16 4L16 5L20 5L20 4L21 4L21 6L20 6L20 7L19 7L19 6L18 6L18 7L19 7L19 10L17 10L17 9L18 9L18 8L17 8L17 9L15 9L15 8L14 8L14 7L15 7L15 4L14 4L14 3L16 3L16 2L14 2L14 0L13 0L13 1L12 1L12 0ZM21 0L21 1L23 1L23 0ZM26 0L26 1L27 1L27 0ZM28 0L28 5L29 5L29 0ZM12 2L12 4L13 4L13 2ZM18 3L18 4L20 4L20 3ZM26 4L26 5L27 5L27 4ZM10 5L10 6L9 6L9 7L10 7L10 9L11 9L11 11L10 11L10 13L9 13L9 14L8 14L8 12L7 12L7 11L6 11L6 10L5 10L5 9L4 9L4 10L5 10L5 11L6 11L6 12L5 12L5 13L4 13L4 14L3 14L3 11L2 11L2 13L1 13L1 14L2 14L2 15L3 15L3 16L2 16L2 17L3 17L3 16L4 16L4 18L2 18L2 19L1 19L1 20L2 20L2 21L1 21L1 23L2 23L2 24L3 24L3 23L4 23L4 24L5 24L5 23L6 23L6 24L7 24L7 25L8 25L8 24L7 24L7 23L8 23L8 22L9 22L9 24L10 24L10 25L9 25L9 26L10 26L10 27L9 27L9 28L8 28L8 26L7 26L7 27L6 27L6 28L8 28L8 29L9 29L9 30L11 30L11 29L14 29L14 28L16 28L16 27L17 27L17 26L18 26L18 27L19 27L19 26L20 26L20 25L21 25L21 26L22 26L22 23L23 23L23 24L24 24L24 25L25 25L25 26L26 26L26 25L27 25L27 24L26 24L26 20L27 20L27 21L28 21L28 24L29 24L29 25L30 25L30 26L31 26L31 27L29 27L29 26L28 26L28 27L25 27L25 28L26 28L26 32L25 32L25 33L24 33L24 34L25 34L25 33L27 33L27 31L28 31L28 27L29 27L29 28L31 28L31 27L32 27L32 28L33 28L33 27L35 27L35 28L36 28L36 27L35 27L35 25L36 25L36 24L34 24L34 25L33 25L33 23L34 23L34 22L32 22L32 23L31 23L31 21L32 21L32 19L31 19L31 21L30 21L30 19L29 19L29 18L33 18L33 15L35 15L35 16L36 16L36 14L33 14L33 15L31 15L31 16L32 16L32 17L29 17L29 16L30 16L30 14L31 14L31 13L30 13L30 14L28 14L28 15L25 15L25 14L26 14L26 13L27 13L27 12L29 12L29 9L28 9L28 8L27 8L27 7L26 7L26 8L27 8L27 9L28 9L28 11L27 11L27 10L25 10L25 8L23 8L23 7L24 7L24 6L23 6L23 5L22 5L22 6L21 6L21 7L20 7L20 8L21 8L21 9L20 9L20 10L19 10L19 11L20 11L20 12L21 12L21 13L19 13L19 12L17 12L17 10L16 10L16 11L15 11L15 9L14 9L14 8L13 8L13 9L12 9L12 6L13 6L13 7L14 7L14 6L13 6L13 5L12 5L12 6L11 6L11 5ZM10 6L10 7L11 7L11 6ZM16 6L16 7L17 7L17 6ZM22 6L22 7L23 7L23 6ZM36 8L36 9L37 9L37 8ZM21 9L21 11L22 11L22 9ZM23 9L23 11L24 11L24 13L23 13L23 12L22 12L22 14L24 14L24 13L26 13L26 12L27 12L27 11L26 11L26 12L25 12L25 11L24 11L24 9ZM12 10L12 11L14 11L14 10ZM33 10L33 12L34 12L34 13L35 13L35 12L34 12L34 10ZM6 12L6 13L7 13L7 12ZM15 12L15 13L12 13L12 14L14 14L14 16L13 16L13 15L12 15L12 16L11 16L11 15L10 15L10 14L11 14L11 13L10 13L10 14L9 14L9 15L8 15L8 14L6 14L6 15L5 15L5 14L4 14L4 16L6 16L6 17L5 17L5 18L4 18L4 19L2 19L2 20L4 20L4 21L2 21L2 22L4 22L4 23L5 23L5 21L7 21L7 22L6 22L6 23L7 23L7 22L8 22L8 21L9 21L9 22L10 22L10 23L11 23L11 25L10 25L10 26L11 26L11 28L9 28L9 29L11 29L11 28L12 28L12 27L14 27L14 26L15 26L15 27L16 27L16 26L17 26L17 24L19 24L19 25L20 25L20 24L21 24L21 23L22 23L22 22L21 22L21 23L20 23L20 24L19 24L19 22L20 22L20 20L21 20L21 19L20 19L20 18L21 18L21 14L19 14L19 13L16 13L16 12ZM17 14L17 16L16 16L16 19L17 19L17 20L19 20L19 19L17 19L17 17L19 17L19 14ZM6 15L6 16L7 16L7 15ZM9 15L9 16L8 16L8 17L6 17L6 18L7 18L7 19L4 19L4 20L7 20L7 19L8 19L8 17L9 17L9 18L10 18L10 19L9 19L9 21L10 21L10 22L12 22L12 23L13 23L13 22L12 22L12 21L13 21L13 19L12 19L12 18L13 18L13 17L12 17L12 18L10 18L10 17L11 17L11 16L10 16L10 15ZM22 15L22 18L23 18L23 19L24 19L24 20L23 20L23 23L24 23L24 22L25 22L25 21L24 21L24 20L26 20L26 19L24 19L24 18L23 18L23 17L25 17L25 18L26 18L26 17L27 17L27 19L28 19L28 18L29 18L29 17L27 17L27 16L25 16L25 15ZM9 16L9 17L10 17L10 16ZM11 19L11 21L12 21L12 19ZM14 20L14 21L15 21L15 20ZM16 21L16 23L15 23L15 22L14 22L14 25L15 25L15 24L17 24L17 22L19 22L19 21ZM35 22L35 23L36 23L36 22ZM30 24L30 25L31 25L31 24ZM11 25L11 26L13 26L13 25ZM32 25L32 27L33 27L33 25ZM29 29L29 32L32 32L32 29ZM33 29L33 31L34 31L34 29ZM12 30L12 31L13 31L13 32L14 32L14 31L15 31L15 30ZM30 30L30 31L31 31L31 30ZM35 30L35 31L36 31L36 30ZM23 31L23 32L24 32L24 31ZM31 33L31 34L30 34L30 35L31 35L31 34L33 34L33 33ZM12 34L12 35L13 35L13 34ZM19 34L19 35L20 35L20 34ZM0 0L0 7L7 7L7 0ZM1 1L1 6L6 6L6 1ZM2 2L2 5L5 5L5 2ZM30 0L30 7L37 7L37 0ZM31 1L31 6L36 6L36 1ZM32 2L32 5L35 5L35 2ZM0 30L0 37L7 37L7 30ZM1 31L1 36L6 36L6 31ZM2 32L2 35L5 35L5 32Z" fill="#000000"/></g></g></svg>
