<?xml version="1.0" encoding="UTF-8"?>
<svg xmlns="http://www.w3.org/2000/svg" version="1.1" width="100" height="100" viewBox="0 0 100 100"><rect x="0" y="0" width="100" height="100" fill="#ffffff"/><g transform="scale(2.703)"><g transform="translate(0,0)"><path fill-rule="evenodd" d="M9 0L9 1L8 1L8 2L9 2L9 3L8 3L8 4L10 4L10 7L11 7L11 4L12 4L12 5L13 5L13 6L12 6L12 9L13 9L13 10L11 10L11 13L10 13L10 11L9 11L9 10L10 10L10 9L11 9L11 8L6 8L6 9L5 9L5 8L0 8L0 9L1 9L1 10L0 10L0 11L2 11L2 12L0 12L0 13L1 13L1 14L0 14L0 15L1 15L1 14L2 14L2 15L3 15L3 14L4 14L4 17L5 17L5 18L4 18L4 20L5 20L5 21L4 21L4 24L3 24L3 23L2 23L2 22L3 22L3 21L2 21L2 20L1 20L1 18L3 18L3 16L0 16L0 22L1 22L1 23L0 23L0 29L1 29L1 26L2 26L2 27L3 27L3 25L4 25L4 26L5 26L5 27L4 27L4 28L2 28L2 29L4 29L4 28L5 28L5 29L8 29L8 31L9 31L9 29L10 29L10 30L11 30L11 29L12 29L12 30L13 30L13 31L12 31L12 33L13 33L13 32L14 32L14 33L15 33L15 32L14 32L14 31L16 31L16 30L18 30L18 31L19 31L19 30L21 30L21 28L22 28L22 30L24 30L24 31L23 31L23 32L22 32L22 31L21 31L21 32L19 32L19 34L18 34L18 32L17 32L17 33L16 33L16 34L15 34L15 35L14 35L14 36L15 36L15 37L18 37L18 36L20 36L20 37L21 37L21 36L22 36L22 37L23 37L23 36L22 36L22 35L23 35L23 34L24 34L24 36L25 36L25 37L27 37L27 35L28 35L28 36L29 36L29 37L31 37L31 35L32 35L32 34L33 34L33 35L34 35L34 34L35 34L35 35L36 35L36 36L32 36L32 37L37 37L37 33L35 33L35 32L36 32L36 31L37 31L37 30L35 30L35 32L33 32L33 30L34 30L34 29L35 29L35 28L33 28L33 26L34 26L34 27L36 27L36 28L37 28L37 26L36 26L36 25L37 25L37 22L36 22L36 21L37 21L37 18L36 18L36 17L37 17L37 14L36 14L36 13L35 13L35 12L34 12L34 11L35 11L35 9L36 9L36 8L35 8L35 9L34 9L34 8L33 8L33 9L34 9L34 11L32 11L32 12L31 12L31 10L30 10L30 8L29 8L29 4L28 4L28 3L27 3L27 2L29 2L29 1L26 1L26 0L25 0L25 1L24 1L24 0L22 0L22 1L21 1L21 0L16 0L16 1L15 1L15 2L16 2L16 3L13 3L13 4L12 4L12 2L13 2L13 1L14 1L14 0L13 0L13 1L11 1L11 2L10 2L10 0ZM16 1L16 2L17 2L17 3L16 3L16 4L13 4L13 5L16 5L16 6L15 6L15 7L14 7L14 6L13 6L13 8L15 8L15 10L14 10L14 11L12 11L12 13L11 13L11 14L10 14L10 13L9 13L9 14L8 14L8 12L7 12L7 11L6 11L6 10L9 10L9 9L6 9L6 10L5 10L5 11L4 11L4 12L3 12L3 13L4 13L4 14L8 14L8 15L6 15L6 16L5 16L5 17L6 17L6 18L5 18L5 20L7 20L7 21L6 21L6 22L7 22L7 23L5 23L5 24L7 24L7 23L8 23L8 24L11 24L11 25L8 25L8 26L7 26L7 25L5 25L5 26L7 26L7 27L5 27L5 28L8 28L8 29L9 29L9 28L10 28L10 29L11 29L11 26L13 26L13 27L12 27L12 29L15 29L15 30L16 30L16 29L15 29L15 28L14 28L14 27L15 27L15 26L16 26L16 27L17 27L17 28L18 28L18 30L19 30L19 29L20 29L20 28L21 28L21 27L22 27L22 28L26 28L26 26L28 26L28 25L29 25L29 24L28 24L28 23L29 23L29 22L30 22L30 24L36 24L36 23L34 23L34 21L32 21L32 22L33 22L33 23L31 23L31 21L30 21L30 18L31 18L31 19L32 19L32 20L36 20L36 19L35 19L35 18L34 18L34 17L30 17L30 14L31 14L31 16L32 16L32 14L33 14L33 16L35 16L35 17L36 17L36 14L35 14L35 15L34 15L34 13L30 13L30 10L28 10L28 9L29 9L29 8L28 8L28 6L27 6L27 5L28 5L28 4L26 4L26 2L25 2L25 4L24 4L24 5L22 5L22 3L21 3L21 2L20 2L20 1L19 1L19 2L17 2L17 1ZM22 1L22 2L24 2L24 1ZM19 2L19 3L20 3L20 4L19 4L19 5L17 5L17 4L18 4L18 3L17 3L17 4L16 4L16 5L17 5L17 6L16 6L16 8L17 8L17 9L16 9L16 10L15 10L15 12L13 12L13 13L12 13L12 14L14 14L14 13L16 13L16 14L15 14L15 16L13 16L13 15L12 15L12 17L15 17L15 16L16 16L16 18L14 18L14 20L15 20L15 21L19 21L19 22L21 22L21 20L22 20L22 22L24 22L24 23L25 23L25 22L24 22L24 21L27 21L27 20L28 20L28 22L27 22L27 23L26 23L26 24L23 24L23 25L20 25L20 24L22 24L22 23L20 23L20 24L19 24L19 23L18 23L18 22L14 22L14 21L12 21L12 19L13 19L13 18L11 18L11 20L10 20L10 19L9 19L9 18L10 18L10 17L11 17L11 16L10 16L10 14L9 14L9 15L8 15L8 16L6 16L6 17L8 17L8 19L7 19L7 18L6 18L6 19L7 19L7 20L8 20L8 21L7 21L7 22L11 22L11 21L12 21L12 22L13 22L13 23L12 23L12 25L13 25L13 24L14 24L14 25L16 25L16 26L17 26L17 27L18 27L18 28L19 28L19 26L20 26L20 27L21 27L21 26L22 26L22 27L23 27L23 26L24 26L24 27L25 27L25 26L26 26L26 25L28 25L28 24L27 24L27 23L28 23L28 22L29 22L29 20L28 20L28 19L29 19L29 18L30 18L30 17L29 17L29 18L26 18L26 16L29 16L29 14L30 14L30 13L28 13L28 12L29 12L29 11L28 11L28 10L26 10L26 9L27 9L27 6L26 6L26 9L25 9L25 6L24 6L24 8L23 8L23 6L22 6L22 5L21 5L21 3L20 3L20 2ZM10 3L10 4L11 4L11 3ZM8 5L8 7L9 7L9 5ZM19 5L19 8L18 8L18 6L17 6L17 8L18 8L18 9L20 9L20 10L18 10L18 11L17 11L17 10L16 10L16 11L17 11L17 12L16 12L16 13L17 13L17 14L16 14L16 16L18 16L18 17L17 17L17 18L16 18L16 19L15 19L15 20L19 20L19 21L20 21L20 18L21 18L21 19L22 19L22 18L23 18L23 19L24 19L24 20L26 20L26 19L25 19L25 16L26 16L26 14L28 14L28 13L26 13L26 10L25 10L25 9L24 9L24 10L23 10L23 12L24 12L24 11L25 11L25 13L24 13L24 14L22 14L22 15L24 15L24 16L23 16L23 17L22 17L22 16L21 16L21 15L20 15L20 14L19 14L19 13L17 13L17 12L19 12L19 11L20 11L20 12L21 12L21 13L22 13L22 12L21 12L21 9L22 9L22 8L21 8L21 7L22 7L22 6L21 6L21 7L20 7L20 5ZM20 8L20 9L21 9L21 8ZM31 8L31 9L32 9L32 8ZM3 9L3 10L4 10L4 9ZM36 10L36 11L37 11L37 10ZM6 12L6 13L7 13L7 12ZM25 13L25 14L24 14L24 15L25 15L25 14L26 14L26 13ZM18 14L18 16L20 16L20 17L18 17L18 18L20 18L20 17L21 17L21 16L20 16L20 15L19 15L19 14ZM8 16L8 17L10 17L10 16ZM23 17L23 18L24 18L24 17ZM33 18L33 19L34 19L34 18ZM8 19L8 20L9 20L9 21L10 21L10 20L9 20L9 19ZM1 23L1 24L2 24L2 23ZM14 23L14 24L15 24L15 23ZM17 23L17 24L16 24L16 25L17 25L17 24L18 24L18 25L19 25L19 24L18 24L18 23ZM24 25L24 26L25 26L25 25ZM30 25L30 26L31 26L31 25ZM32 25L32 26L33 26L33 25ZM34 25L34 26L35 26L35 25ZM9 26L9 27L10 27L10 26ZM28 27L28 28L27 28L27 29L26 29L26 30L25 30L25 29L24 29L24 30L25 30L25 32L23 32L23 33L24 33L24 34L25 34L25 36L26 36L26 34L27 34L27 32L28 32L28 30L27 30L27 29L28 29L28 28L31 28L31 27ZM29 29L29 32L32 32L32 29ZM26 30L26 32L25 32L25 34L26 34L26 32L27 32L27 30ZM30 30L30 31L31 31L31 30ZM8 32L8 37L10 37L10 36L11 36L11 37L12 37L12 35L13 35L13 34L11 34L11 35L10 35L10 33L9 33L9 32ZM21 32L21 33L22 33L22 32ZM31 33L31 34L28 34L28 35L31 35L31 34L32 34L32 33ZM33 33L33 34L34 34L34 33ZM16 34L16 36L18 36L18 35L17 35L17 34ZM19 34L19 35L22 35L22 34ZM0 0L0 7L7 7L7 0ZM1 1L1 6L6 6L6 1ZM2 2L2 5L5 5L5 2ZM30 0L30 7L37 7L37 0ZM31 1L31 6L36 6L36 1ZM32 2L32 5L35 5L35 2ZM0 30L0 37L7 37L7 30ZM1 31L1 36L6 36L6 31ZM2 32L2 35L5 35L5 32Z" fill="#000000"/></g></g></svg>
