<?xml version="1.0" encoding="UTF-8"?>
<svg xmlns="http://www.w3.org/2000/svg" version="1.1" width="100" height="100" viewBox="0 0 100 100"><rect x="0" y="0" width="100" height="100" fill="#ffffff"/><g transform="scale(2.703)"><g transform="translate(0,0)"><path fill-rule="evenodd" d="M9 0L9 1L8 1L8 2L9 2L9 3L8 3L8 4L10 4L10 7L11 7L11 4L12 4L12 5L13 5L13 4L14 4L14 8L13 8L13 6L12 6L12 9L16 9L16 10L15 10L15 11L16 11L16 12L13 12L13 13L12 13L12 11L14 11L14 10L10 10L10 9L11 9L11 8L6 8L6 9L5 9L5 8L0 8L0 11L2 11L2 12L3 12L3 14L4 14L4 15L2 15L2 13L1 13L1 15L0 15L0 17L1 17L1 18L4 18L4 19L3 19L3 20L4 20L4 21L5 21L5 23L4 23L4 22L3 22L3 21L1 21L1 20L0 20L0 21L1 21L1 24L2 24L2 23L3 23L3 25L2 25L2 26L3 26L3 27L2 27L2 28L3 28L3 27L4 27L4 24L5 24L5 28L6 28L6 29L8 29L8 31L9 31L9 30L10 30L10 33L9 33L9 32L8 32L8 37L9 37L9 35L11 35L11 36L10 36L10 37L12 37L12 35L13 35L13 34L11 34L11 29L12 29L12 30L13 30L13 31L12 31L12 33L13 33L13 32L14 32L14 33L16 33L16 34L15 34L15 35L14 35L14 36L15 36L15 37L19 37L19 34L21 34L21 33L20 33L20 32L22 32L22 33L23 33L23 34L22 34L22 35L21 35L21 36L20 36L20 37L21 37L21 36L23 36L23 34L24 34L24 33L25 33L25 34L26 34L26 36L25 36L25 37L26 37L26 36L27 36L27 35L28 35L28 36L29 36L29 37L31 37L31 35L32 35L32 34L33 34L33 35L34 35L34 34L35 34L35 35L36 35L36 36L32 36L32 37L37 37L37 33L35 33L35 32L36 32L36 31L37 31L37 30L35 30L35 32L33 32L33 30L34 30L34 29L35 29L35 28L33 28L33 26L34 26L34 27L36 27L36 28L37 28L37 26L36 26L36 25L37 25L37 22L36 22L36 21L37 21L37 18L36 18L36 17L37 17L37 14L36 14L36 13L35 13L35 12L34 12L34 11L35 11L35 9L36 9L36 8L35 8L35 9L34 9L34 8L33 8L33 9L34 9L34 11L32 11L32 12L31 12L31 10L30 10L30 8L29 8L29 4L28 4L28 3L27 3L27 2L29 2L29 1L26 1L26 0L25 0L25 2L24 2L24 3L22 3L22 1L21 1L21 0L19 0L19 1L18 1L18 0L17 0L17 1L15 1L15 0L14 0L14 1L15 1L15 2L14 2L14 3L13 3L13 4L12 4L12 2L13 2L13 1L11 1L11 2L10 2L10 0ZM23 0L23 1L24 1L24 0ZM17 1L17 3L18 3L18 1ZM19 1L19 4L17 4L17 8L18 8L18 5L19 5L19 9L18 9L18 10L16 10L16 11L17 11L17 12L18 12L18 13L20 13L20 12L21 12L21 14L18 14L18 15L17 15L17 14L16 14L16 13L13 13L13 14L12 14L12 13L11 13L11 15L10 15L10 12L11 12L11 11L10 11L10 10L9 10L9 9L8 9L8 10L7 10L7 9L6 9L6 10L5 10L5 11L3 11L3 12L4 12L4 13L5 13L5 16L7 16L7 17L6 17L6 18L8 18L8 19L11 19L11 18L13 18L13 19L12 19L12 21L11 21L11 20L10 20L10 21L9 21L9 20L7 20L7 19L6 19L6 20L5 20L5 21L6 21L6 22L7 22L7 23L5 23L5 24L7 24L7 23L10 23L10 24L11 24L11 26L13 26L13 27L12 27L12 29L15 29L15 30L16 30L16 31L17 31L17 32L16 32L16 33L17 33L17 32L18 32L18 34L19 34L19 32L20 32L20 30L16 30L16 29L17 29L17 28L18 28L18 29L19 29L19 27L20 27L20 29L22 29L22 28L23 28L23 29L24 29L24 30L22 30L22 31L24 31L24 30L26 30L26 31L25 31L25 32L26 32L26 34L27 34L27 32L28 32L28 30L27 30L27 29L28 29L28 28L31 28L31 27L28 27L28 28L27 28L27 29L24 29L24 28L26 28L26 26L28 26L28 25L29 25L29 24L28 24L28 23L29 23L29 22L30 22L30 24L36 24L36 23L34 23L34 21L32 21L32 22L33 22L33 23L31 23L31 21L30 21L30 18L31 18L31 19L32 19L32 20L36 20L36 19L35 19L35 18L34 18L34 17L30 17L30 14L31 14L31 16L32 16L32 14L33 14L33 16L35 16L35 17L36 17L36 14L35 14L35 15L34 15L34 13L30 13L30 10L28 10L28 9L29 9L29 8L28 8L28 6L27 6L27 5L28 5L28 4L26 4L26 2L25 2L25 4L24 4L24 5L23 5L23 4L22 4L22 3L21 3L21 4L20 4L20 2L21 2L21 1ZM15 2L15 3L14 3L14 4L15 4L15 5L16 5L16 4L15 4L15 3L16 3L16 2ZM10 3L10 4L11 4L11 3ZM19 4L19 5L20 5L20 4ZM21 4L21 6L20 6L20 8L22 8L22 9L23 9L23 10L24 10L24 11L25 11L25 10L26 10L26 13L28 13L28 14L27 14L27 15L26 15L26 14L25 14L25 15L23 15L23 16L22 16L22 14L24 14L24 13L25 13L25 12L22 12L22 10L21 10L21 9L19 9L19 10L18 10L18 11L19 11L19 12L20 12L20 11L19 11L19 10L21 10L21 12L22 12L22 14L21 14L21 16L20 16L20 15L18 15L18 16L17 16L17 17L16 17L16 18L14 18L14 19L16 19L16 18L17 18L17 19L19 19L19 20L20 20L20 21L18 21L18 20L17 20L17 21L16 21L16 20L15 20L15 21L16 21L16 22L14 22L14 21L12 21L12 22L13 22L13 23L12 23L12 25L13 25L13 24L14 24L14 25L16 25L16 26L15 26L15 27L14 27L14 28L15 28L15 29L16 29L16 28L17 28L17 27L19 27L19 26L20 26L20 27L21 27L21 28L22 28L22 27L21 27L21 26L22 26L22 25L23 25L23 26L24 26L24 27L23 27L23 28L24 28L24 27L25 27L25 26L26 26L26 25L28 25L28 24L27 24L27 23L28 23L28 22L29 22L29 20L28 20L28 19L29 19L29 18L30 18L30 17L29 17L29 18L26 18L26 16L29 16L29 14L30 14L30 13L28 13L28 12L29 12L29 11L28 11L28 10L26 10L26 9L27 9L27 6L26 6L26 9L23 9L23 5L22 5L22 4ZM8 5L8 7L9 7L9 5ZM24 5L24 8L25 8L25 5ZM15 6L15 8L16 8L16 6ZM21 6L21 7L22 7L22 6ZM31 8L31 9L32 9L32 8ZM1 9L1 10L2 10L2 9ZM6 10L6 11L5 11L5 12L6 12L6 13L8 13L8 14L9 14L9 13L8 13L8 12L10 12L10 11L8 11L8 12L6 12L6 11L7 11L7 10ZM36 10L36 11L37 11L37 10ZM6 14L6 15L7 15L7 16L8 16L8 18L9 18L9 17L10 17L10 15L9 15L9 16L8 16L8 15L7 15L7 14ZM14 14L14 16L13 16L13 15L12 15L12 17L15 17L15 15L16 15L16 14ZM25 15L25 16L26 16L26 15ZM1 16L1 17L2 17L2 16ZM3 16L3 17L4 17L4 18L5 18L5 17L4 17L4 16ZM18 16L18 17L20 17L20 16ZM21 16L21 17L22 17L22 18L23 18L23 19L22 19L22 20L21 20L21 18L19 18L19 19L20 19L20 20L21 20L21 22L19 22L19 23L16 23L16 24L19 24L19 25L17 25L17 26L16 26L16 27L15 27L15 28L16 28L16 27L17 27L17 26L19 26L19 25L20 25L20 26L21 26L21 25L22 25L22 24L23 24L23 23L24 23L24 22L25 22L25 24L26 24L26 23L27 23L27 22L28 22L28 20L27 20L27 21L25 21L25 20L26 20L26 19L25 19L25 20L23 20L23 19L24 19L24 18L25 18L25 17L24 17L24 16L23 16L23 17L22 17L22 16ZM23 17L23 18L24 18L24 17ZM33 18L33 19L34 19L34 18ZM6 20L6 21L7 21L7 20ZM22 20L22 21L23 21L23 22L24 22L24 21L23 21L23 20ZM8 21L8 22L9 22L9 21ZM10 21L10 22L11 22L11 21ZM14 23L14 24L15 24L15 23ZM19 23L19 24L20 24L20 25L21 25L21 24L22 24L22 23ZM0 25L0 29L1 29L1 25ZM6 25L6 26L7 26L7 25ZM8 25L8 27L6 27L6 28L8 28L8 29L11 29L11 28L8 28L8 27L9 27L9 26L10 26L10 25ZM24 25L24 26L25 26L25 25ZM30 25L30 26L31 26L31 25ZM32 25L32 26L33 26L33 25ZM34 25L34 26L35 26L35 25ZM29 29L29 32L32 32L32 29ZM30 30L30 31L31 31L31 30ZM14 31L14 32L15 32L15 31ZM26 31L26 32L27 32L27 31ZM31 33L31 34L28 34L28 35L31 35L31 34L32 34L32 33ZM33 33L33 34L34 34L34 33ZM16 34L16 35L15 35L15 36L16 36L16 35L17 35L17 36L18 36L18 35L17 35L17 34ZM0 0L0 7L7 7L7 0ZM1 1L1 6L6 6L6 1ZM2 2L2 5L5 5L5 2ZM30 0L30 7L37 7L37 0ZM31 1L31 6L36 6L36 1ZM32 2L32 5L35 5L35 2ZM0 30L0 37L7 37L7 30ZM1 31L1 36L6 36L6 31ZM2 32L2 35L5 35L5 32Z" fill="#000000"/></g></g></svg>
