<?xml version="1.0" encoding="UTF-8"?>
<svg xmlns="http://www.w3.org/2000/svg" version="1.1" width="100" height="100" viewBox="0 0 100 100"><rect x="0" y="0" width="100" height="100" fill="#ffffff"/><g transform="scale(2.703)"><g transform="translate(0,0)"><path fill-rule="evenodd" d="M8 0L8 1L11 1L11 3L10 3L10 2L9 2L9 3L10 3L10 5L9 5L9 6L8 6L8 8L9 8L9 9L10 9L10 10L11 10L11 9L10 9L10 7L11 7L11 6L12 6L12 9L13 9L13 10L12 10L12 11L13 11L13 10L15 10L15 13L14 13L14 14L13 14L13 13L12 13L12 14L13 14L13 15L12 15L12 16L11 16L11 17L10 17L10 15L11 15L11 14L10 14L10 15L8 15L8 16L6 16L6 15L7 15L7 14L6 14L6 13L8 13L8 14L9 14L9 13L10 13L10 12L11 12L11 11L9 11L9 10L6 10L6 9L7 9L7 8L6 8L6 9L5 9L5 8L3 8L3 9L2 9L2 8L0 8L0 11L1 11L1 12L2 12L2 13L0 13L0 14L2 14L2 13L3 13L3 17L2 17L2 16L1 16L1 15L0 15L0 18L1 18L1 19L0 19L0 20L1 20L1 22L0 22L0 29L1 29L1 27L2 27L2 29L4 29L4 28L5 28L5 29L7 29L7 28L5 28L5 26L6 26L6 27L8 27L8 28L9 28L9 29L8 29L8 30L9 30L9 29L10 29L10 28L9 28L9 26L10 26L10 27L11 27L11 28L12 28L12 27L14 27L14 26L15 26L15 28L14 28L14 29L11 29L11 30L10 30L10 31L9 31L9 32L8 32L8 34L9 34L9 35L8 35L8 37L9 37L9 35L10 35L10 36L11 36L11 33L10 33L10 31L12 31L12 33L14 33L14 36L13 36L13 37L16 37L16 36L19 36L19 34L20 34L20 33L21 33L21 31L22 31L22 32L26 32L26 31L27 31L27 33L22 33L22 34L21 34L21 35L24 35L24 34L27 34L27 35L26 35L26 36L28 36L28 37L29 37L29 36L28 36L28 34L27 34L27 33L29 33L29 35L30 35L30 37L32 37L32 36L31 36L31 35L33 35L33 37L34 37L34 36L36 36L36 37L37 37L37 33L35 33L35 34L36 34L36 35L34 35L34 31L35 31L35 32L36 32L36 31L37 31L37 30L36 30L36 28L37 28L37 26L36 26L36 25L37 25L37 22L36 22L36 21L37 21L37 18L36 18L36 20L35 20L35 22L34 22L34 19L35 19L35 18L34 18L34 17L37 17L37 14L36 14L36 11L37 11L37 10L34 10L34 9L32 9L32 12L33 12L33 13L31 13L31 10L30 10L30 9L31 9L31 8L30 8L30 9L29 9L29 6L28 6L28 7L27 7L27 6L26 6L26 7L25 7L25 5L22 5L22 3L23 3L23 4L24 4L24 3L27 3L27 2L24 2L24 3L23 3L23 1L22 1L22 0L21 0L21 1L22 1L22 2L21 2L21 3L20 3L20 4L18 4L18 3L17 3L17 6L16 6L16 7L17 7L17 6L18 6L18 7L19 7L19 8L17 8L17 10L16 10L16 8L15 8L15 4L14 4L14 3L15 3L15 2L14 2L14 0L13 0L13 1L12 1L12 0ZM17 0L17 2L18 2L18 0ZM26 0L26 1L27 1L27 0ZM28 0L28 5L29 5L29 0ZM19 1L19 2L20 2L20 1ZM12 2L12 4L13 4L13 2ZM20 4L20 5L19 5L19 7L20 7L20 6L21 6L21 9L20 9L20 10L19 10L19 9L18 9L18 10L19 10L19 11L18 11L18 12L17 12L17 11L16 11L16 12L17 12L17 13L19 13L19 14L18 14L18 15L17 15L17 14L16 14L16 15L15 15L15 14L14 14L14 15L13 15L13 16L14 16L14 17L12 17L12 18L10 18L10 17L8 17L8 18L7 18L7 17L6 17L6 18L7 18L7 19L5 19L5 20L4 20L4 19L1 19L1 20L2 20L2 22L3 22L3 23L5 23L5 24L3 24L3 25L6 25L6 26L9 26L9 25L11 25L11 26L13 26L13 25L11 25L11 23L9 23L9 22L8 22L8 21L9 21L9 20L7 20L7 19L9 19L9 18L10 18L10 19L12 19L12 21L11 21L11 20L10 20L10 21L11 21L11 22L12 22L12 23L13 23L13 22L12 22L12 21L13 21L13 19L12 19L12 18L14 18L14 21L15 21L15 20L16 20L16 21L17 21L17 22L19 22L19 23L20 23L20 24L17 24L17 25L19 25L19 26L20 26L20 27L16 27L16 28L17 28L17 29L16 29L16 30L17 30L17 29L18 29L18 31L17 31L17 32L18 32L18 34L17 34L17 33L16 33L16 32L15 32L15 33L16 33L16 35L18 35L18 34L19 34L19 32L20 32L20 31L21 31L21 29L22 29L22 28L24 28L24 29L23 29L23 30L25 30L25 31L26 31L26 30L27 30L27 31L28 31L28 27L29 27L29 28L31 28L31 27L32 27L32 28L33 28L33 27L35 27L35 28L36 28L36 27L35 27L35 25L36 25L36 24L34 24L34 25L33 25L33 23L34 23L34 22L32 22L32 23L31 23L31 21L32 21L32 19L31 19L31 21L30 21L30 19L29 19L29 18L33 18L33 15L35 15L35 16L36 16L36 14L33 14L33 15L31 15L31 16L32 16L32 17L29 17L29 16L30 16L30 14L31 14L31 13L30 13L30 14L28 14L28 15L27 15L27 14L25 14L25 12L26 12L26 13L27 13L27 12L29 12L29 9L28 9L28 8L27 8L27 7L26 7L26 8L27 8L27 9L28 9L28 11L27 11L27 10L25 10L25 9L24 9L24 8L22 8L22 6L21 6L21 4ZM26 4L26 5L27 5L27 4ZM10 5L10 6L9 6L9 7L10 7L10 6L11 6L11 5ZM12 5L12 6L13 6L13 7L14 7L14 6L13 6L13 5ZM23 6L23 7L24 7L24 6ZM13 8L13 9L14 9L14 8ZM36 8L36 9L37 9L37 8ZM1 9L1 11L2 11L2 12L3 12L3 13L6 13L6 12L7 12L7 11L5 11L5 10L4 10L4 9L3 9L3 11L2 11L2 9ZM22 9L22 10L23 10L23 11L22 11L22 12L23 12L23 14L24 14L24 15L23 15L23 16L24 16L24 17L25 17L25 18L26 18L26 17L27 17L27 19L28 19L28 18L29 18L29 17L27 17L27 16L24 16L24 15L25 15L25 14L24 14L24 9ZM20 10L20 11L19 11L19 12L20 12L20 11L21 11L21 10ZM33 10L33 12L34 12L34 13L35 13L35 12L34 12L34 10ZM8 11L8 13L9 13L9 11ZM26 11L26 12L27 12L27 11ZM21 13L21 14L22 14L22 13ZM5 14L5 15L6 15L6 14ZM19 14L19 15L18 15L18 16L19 16L19 19L20 19L20 20L19 20L19 22L20 22L20 23L22 23L22 22L23 22L23 23L25 23L25 22L24 22L24 21L21 21L21 19L24 19L24 18L22 18L22 17L20 17L20 16L21 16L21 15L20 15L20 14ZM14 15L14 16L15 16L15 15ZM16 15L16 17L15 17L15 19L16 19L16 20L17 20L17 21L18 21L18 20L17 20L17 18L18 18L18 17L17 17L17 15ZM3 17L3 18L5 18L5 17ZM16 17L16 18L17 18L17 17ZM25 19L25 20L26 20L26 24L27 24L27 25L26 25L26 26L24 26L24 24L23 24L23 25L22 25L22 26L21 26L21 27L22 27L22 26L24 26L24 27L28 27L28 26L29 26L29 27L31 27L31 26L30 26L30 25L31 25L31 24L30 24L30 25L29 25L29 24L28 24L28 21L27 21L27 20L26 20L26 19ZM6 20L6 21L5 21L5 23L7 23L7 24L6 24L6 25L7 25L7 24L8 24L8 22L6 22L6 21L7 21L7 20ZM3 21L3 22L4 22L4 21ZM20 21L20 22L21 22L21 21ZM14 22L14 25L16 25L16 24L15 24L15 22ZM35 22L35 23L36 23L36 22ZM1 24L1 26L2 26L2 24ZM20 24L20 25L21 25L21 24ZM32 25L32 27L33 27L33 25ZM25 28L25 29L26 29L26 28ZM19 29L19 31L18 31L18 32L19 32L19 31L20 31L20 29ZM29 29L29 32L32 32L32 29ZM33 29L33 31L34 31L34 29ZM12 30L12 31L13 31L13 32L14 32L14 31L15 31L15 30ZM30 30L30 31L31 31L31 30ZM35 30L35 31L36 31L36 30ZM9 33L9 34L10 34L10 33ZM31 33L31 34L30 34L30 35L31 35L31 34L33 34L33 33ZM12 34L12 35L13 35L13 34ZM24 36L24 37L25 37L25 36ZM0 0L0 7L7 7L7 0ZM1 1L1 6L6 6L6 1ZM2 2L2 5L5 5L5 2ZM30 0L30 7L37 7L37 0ZM31 1L31 6L36 6L36 1ZM32 2L32 5L35 5L35 2ZM0 30L0 37L7 37L7 30ZM1 31L1 36L6 36L6 31ZM2 32L2 35L5 35L5 32Z" fill="#000000"/></g></g></svg>
